<svg width="228" height="83" viewBox="0 0 228 83" fill="none" xmlns="http://www.w3.org/2000/svg">
<g id="keltech logo-01 1" clip-path="url(#clip0_229_594)">
<path id="Vector" d="M48.1259 0L71.9017 41.5L95.6776 83H48.1259H0.574219L24.3501 41.5L48.1259 0Z" fill="url(#paint0_linear_229_594)"/>
<g id="Group">
<path id="Vector_2" d="M44.328 62.3625C42.2349 62.3625 40.5295 64.0811 40.5295 66.1903C40.5295 67.8952 41.6421 69.3427 43.1743 69.8344V75.3579H34.3552V42.4144H40.6344C41.0265 44.1054 42.5313 45.3691 44.328 45.3691C46.421 45.3691 48.1264 43.6505 48.1264 41.5413C48.1264 39.432 46.421 37.7134 44.328 37.7134C42.5632 37.7134 41.0813 38.9311 40.6572 40.5762H32.5312V77.1961H44.9983V69.9539C46.7767 69.6322 48.1264 68.0698 48.1264 66.1903C48.1264 64.0811 46.421 62.3625 44.328 62.3625ZM44.328 39.5561C45.4178 39.5561 46.3025 40.4476 46.3025 41.5458C46.3025 42.6441 45.4178 43.5356 44.328 43.5356C43.2381 43.5356 42.3535 42.6441 42.3535 41.5458C42.3535 40.4476 43.2381 39.5561 44.328 39.5561ZM44.328 68.1801C43.2381 68.1801 42.3535 67.2886 42.3535 66.1903C42.3535 65.0921 43.2381 64.2006 44.328 64.2006C45.4178 64.2006 46.3025 65.0921 46.3025 66.1903C46.3025 67.2886 45.4178 68.1801 44.328 68.1801Z" fill="white"/>
<path id="Vector_3" d="M61.0363 61.2047C61.5242 60.5613 61.816 59.7618 61.816 58.8887C61.816 56.7794 60.1106 55.0608 58.0175 55.0608C55.9245 55.0608 54.2191 56.7794 54.2191 58.8887C54.2191 60.9979 55.9245 62.7165 58.0175 62.7165C58.5875 62.7165 59.1256 62.5879 59.609 62.3581L68.1635 75.3582H59.8233L50.4115 60.4051L64.8849 40.5811H53.038L45.5733 50.2541C45.1857 50.1209 44.7707 50.0427 44.3375 50.0427C42.2445 50.0427 40.5391 51.7614 40.5391 53.8706C40.5391 55.9798 42.2445 57.6985 44.3375 57.6985C46.4306 57.6985 48.136 55.9798 48.136 53.8706C48.136 52.8597 47.7439 51.9452 47.1055 51.2605L53.9272 42.4238H61.2779L48.2044 60.3362L58.8247 77.2055H71.5653L61.0408 61.2093L61.0363 61.2047ZM56.0431 58.8887C56.0431 57.7904 56.9277 56.8989 58.0175 56.8989C59.1074 56.8989 59.992 57.7904 59.992 58.8887C59.992 59.9869 59.1074 60.8784 58.0175 60.8784C56.9277 60.8784 56.0431 59.9869 56.0431 58.8887ZM44.3284 55.8604C43.2386 55.8604 42.3539 54.9689 42.3539 53.8706C42.3539 52.7723 43.2386 51.8809 44.3284 51.8809C45.4183 51.8809 46.3029 52.7723 46.3029 53.8706C46.3029 54.9689 45.4183 55.8604 44.3284 55.8604Z" fill="white"/>
</g>
<g id="Group_2">
<path id="Vector_4" d="M94.8522 31.3628H99.0246V39.3172L105.358 31.3628H110.005L103.037 39.9284L110.589 50.2494H106.02L100.58 42.9337L99.0201 44.8775V50.2494H94.8477V31.3628H94.8522Z" fill="white"/>
<path id="Vector_5" d="M109.636 43.3614C109.636 38.6788 113.092 36.1514 116.631 36.1514C120.169 36.1514 124.21 38.6007 123.339 44.9284H113.571C114.127 46.4172 115.5 47.1617 117.319 47.1617C118.532 47.1617 119.618 46.8676 120.621 46.0956L122.468 48.0394C121.332 49.4777 119.38 50.5116 116.872 50.5116C113.069 50.5116 109.64 47.9061 109.64 43.3568L109.636 43.3614ZM119.745 41.9782C119.453 40.3836 118.054 39.6116 116.686 39.6116C115.318 39.6116 113.94 40.3285 113.494 41.9782H119.75H119.745Z" fill="white"/>
<path id="Vector_6" d="M125.286 31.3628H129.376V50.2494H125.286V31.3628Z" fill="white"/>
<path id="Vector_7" d="M135.528 35.2231H131.2V31.3677H144.032V35.2231H139.705V50.2543H135.532V35.2231H135.528Z" fill="white"/>
<path id="Vector_8" d="M142.55 43.3614C142.55 38.6788 146.006 36.1514 149.545 36.1514C153.083 36.1514 157.119 38.6007 156.248 44.9284H146.481C147.037 46.4172 148.409 47.1617 150.229 47.1617C151.442 47.1617 152.527 46.8676 153.53 46.0956L155.377 48.0394C154.242 49.4777 152.29 50.5116 149.782 50.5116C145.979 50.5116 142.55 47.9061 142.55 43.3568V43.3614ZM152.664 41.9782C152.372 40.3836 150.972 39.6116 149.6 39.6116C148.227 39.6116 146.854 40.3285 146.408 41.9782H152.664Z" fill="white"/>
<path id="Vector_9" d="M157.543 43.3106C157.543 38.628 161.186 36.1558 164.857 36.1558C167.288 36.1558 169.426 37.2724 170.772 39.5609L167.817 41.5047C167.155 40.5994 166.18 39.8825 164.862 39.8825C163.092 39.8825 161.588 41.2106 161.588 43.3152C161.588 45.4199 163.092 46.7984 164.862 46.7984C166.18 46.7984 167.16 46.0816 167.817 45.1763L170.772 47.1201C169.426 49.3534 167.288 50.5252 164.857 50.5252C161.186 50.5252 157.543 48.0529 157.543 43.3152V43.3106Z" fill="white"/>
<path id="Vector_10" d="M172.591 31.3628H176.681V38.173C177.447 37.0012 178.792 36.1511 180.749 36.1511C183.521 36.1511 185.87 37.8789 185.87 42.1112V50.2494H181.779V42.828C181.779 41.1002 180.908 39.8227 179.216 39.8227C177.525 39.8227 176.681 41.1002 176.681 42.828V50.2494H172.591V31.3628Z" fill="white"/>
<path id="Vector_11" d="M193.681 31.3628H197.853V50.2494H193.681V31.3628Z" fill="white"/>
<path id="Vector_12" d="M199.673 43.3338C199.673 38.6236 203.371 36.1514 206.96 36.1514C210.548 36.1514 214.247 38.6236 214.247 43.3338C214.247 48.044 210.553 50.5162 206.96 50.5162C203.366 50.5162 199.673 48.044 199.673 43.3338ZM206.96 46.794C208.729 46.794 210.206 45.466 210.206 43.3338C210.206 41.2016 208.729 39.8735 206.96 39.8735C205.19 39.8735 203.713 41.2016 203.713 43.3338C203.713 45.466 205.19 46.794 206.96 46.794Z" fill="white"/>
<path id="Vector_13" d="M216.066 31.363H226.915V35.2184H220.234V38.8349H225.829V42.6398H220.234V46.3896H227.152V50.245H216.066V31.3584V31.363Z" fill="white"/>
</g>
<g id="Group_3">
<path id="Vector_14" d="M96.1616 59.1826H94.2783V58.6128H98.6422V59.1826H96.759V65.4873H96.1616V59.1826Z" fill="white"/>
<path id="Vector_15" d="M105.3 62.3993H101.647V65.4873H101.05V58.6128H101.647V61.8387H105.3V58.6128H105.897V65.4873H105.3V62.3993Z" fill="white"/>
<path id="Vector_16" d="M108.547 58.6125H112.113V59.1823H109.144V61.7557H111.68V62.3071H109.144V64.9126H112.199V65.4825H108.547V58.6079V58.6125Z" fill="white"/>
<path id="Vector_17" d="M118.241 58.6128H118.856L122.997 64.4718H123.043V58.6128H123.64V65.4873H123.024L118.884 59.6283H118.834V65.4873H118.236V58.6128H118.241Z" fill="white"/>
<path id="Vector_18" d="M126.294 58.6125H129.86V59.1823H126.891V61.7557H129.427V62.3071H126.891V64.9126H129.947V65.4825H126.294V58.6079V58.6125Z" fill="white"/>
<path id="Vector_19" d="M134.096 59.1826H132.213V58.6128H136.577V59.1826H134.694V65.4873H134.096V59.1826Z" fill="white"/>
<path id="Vector_20" d="M146.157 59.1826H142.4V58.6128H147.147L143.18 64.9175H147.078V65.4873H142.186L146.153 59.1826H146.157Z" fill="white"/>
<path id="Vector_21" d="M149.509 58.6125H153.075V59.1823H150.106V61.7557H152.642V62.3071H150.106V64.9126H153.161V65.4825H149.509V58.6079V58.6125Z" fill="white"/>
<path id="Vector_22" d="M157.927 62.9783H156.262V65.4873H155.665V58.6128H157.781C159.213 58.6128 160.056 59.5502 160.056 60.8001C160.056 61.8341 159.5 62.6291 158.52 62.891L160.266 65.4873H159.605L157.922 62.9783H157.927ZM157.708 62.4269C158.784 62.4269 159.445 61.8479 159.445 60.8001C159.445 59.7524 158.784 59.1826 157.708 59.1826H156.267V62.4269H157.708Z" fill="white"/>
<path id="Vector_23" d="M162.204 62.0499C162.204 59.9269 163.827 58.5161 165.642 58.5161C167.457 58.5161 169.081 59.9315 169.081 62.0499C169.081 64.1683 167.466 65.5837 165.642 65.5837C163.818 65.5837 162.204 64.1683 162.204 62.0499ZM165.642 65.0047C167.124 65.0047 168.479 63.842 168.479 62.0499C168.479 60.2577 167.124 59.0951 165.642 59.0951C164.16 59.0951 162.806 60.2577 162.806 62.0499C162.806 63.842 164.16 65.0047 165.642 65.0047Z" fill="white"/>
<path id="Vector_24" d="M175.173 58.6128H175.788L179.929 64.4718H179.974V58.6128H180.572V65.4873H179.956L175.815 59.6283H175.765V65.4873H175.168V58.6128H175.173Z" fill="white"/>
<path id="Vector_25" d="M183.226 58.6125H186.792V59.1823H183.823V61.7557H186.358V62.3071H183.823V64.9126H186.878V65.4825H183.226V58.6079V58.6125Z" fill="white"/>
<path id="Vector_26" d="M191.028 59.1826H189.145V58.6128H193.508V59.1826H191.625V65.4873H191.028V59.1826Z" fill="white"/>
<path id="Vector_27" d="M195.633 58.6128H196.267L197.968 64.3937L199.801 58.6128H200.289L202.136 64.3937L203.837 58.6128H204.471L202.414 65.4873H201.926L200.052 59.6789L198.169 65.4873H197.676L195.629 58.6128H195.633Z" fill="white"/>
<path id="Vector_28" d="M206.336 62.0499C206.336 59.9269 207.959 58.5161 209.774 58.5161C211.589 58.5161 213.212 59.9315 213.212 62.0499C213.212 64.1683 211.598 65.5837 209.774 65.5837C207.95 65.5837 206.336 64.1683 206.336 62.0499ZM209.779 65.0047C211.261 65.0047 212.615 63.842 212.615 62.0499C212.615 60.2577 211.261 59.0951 209.779 59.0951C208.297 59.0951 206.942 60.2577 206.942 62.0499C206.942 63.842 208.297 65.0047 209.779 65.0047Z" fill="white"/>
<path id="Vector_29" d="M218.032 62.9783H216.368V65.4873H215.771V58.6128H217.886C219.318 58.6128 220.162 59.5502 220.162 60.8001C220.162 61.8341 219.605 62.6291 218.625 62.891L220.372 65.4873H219.71L218.028 62.9783H218.032ZM217.809 62.4269C218.885 62.4269 219.546 61.8479 219.546 60.8001C219.546 59.7524 218.885 59.1826 217.809 59.1826H216.368V62.4269H217.809Z" fill="white"/>
<path id="Vector_30" d="M222.834 58.6128H223.431V62.6291L226.911 58.6128H227.622L224.854 61.7881L227.873 65.4873H227.171L224.489 62.2155L223.431 63.4241V65.4873H222.834V58.6128Z" fill="white"/>
</g>
</g>
<defs>
<linearGradient id="paint0_linear_229_594" x1="48.1259" y1="87.9032" x2="48.1259" y2="-13.2114" gradientUnits="userSpaceOnUse">
<stop stop-color="#3EB8AD"/>
<stop offset="0.49" stop-color="#219BB3"/>
<stop offset="1" stop-color="#19589B"/>
</linearGradient>
<clipPath id="clip0_229_594">
<rect width="228" height="83" fill="white"/>
</clipPath>
</defs>
</svg>
